solid ascii
  facet normal 1.000000e+000 0.000000e+000 -0.000000e+000
    outer loop
      vertex   0.000000e+000 0.000000e+000 0.000000e+000
      vertex   0.000000e+000 5.080000e+000 0.000000e+000
      vertex   0.000000e+000 0.000000e+000 2.794000e+000
    endloop
  endfacet
  facet normal 1.000000e+000 -0.000000e+000 0.000000e+000
    outer loop
      vertex   0.000000e+000 0.000000e+000 2.794000e+000
      vertex   0.000000e+000 5.080000e+000 0.000000e+000
      vertex   0.000000e+000 5.080000e+000 2.794000e+000
    endloop
  endfacet
  facet normal 0.000000e+000 -1.000000e+000 0.000000e+000
    outer loop
      vertex   -1.016000e+001 0.000000e+000 0.000000e+000
      vertex   0.000000e+000 0.000000e+000 0.000000e+000
      vertex   -1.016000e+001 0.000000e+000 2.794000e+000
    endloop
  endfacet
  facet normal 0.000000e+000 -1.000000e+000 0.000000e+000
    outer loop
      vertex   -1.016000e+001 0.000000e+000 2.794000e+000
      vertex   0.000000e+000 0.000000e+000 0.000000e+000
      vertex   0.000000e+000 0.000000e+000 2.794000e+000
    endloop
  endfacet
  facet normal -1.000000e+000 0.000000e+000 0.000000e+000
    outer loop
      vertex   -1.016000e+001 5.080000e+000 0.000000e+000
      vertex   -1.016000e+001 0.000000e+000 0.000000e+000
      vertex   -1.016000e+001 5.080000e+000 2.794000e+000
    endloop
  endfacet
  facet normal -1.000000e+000 -0.000000e+000 0.000000e+000
    outer loop
      vertex   -1.016000e+001 5.080000e+000 2.794000e+000
      vertex   -1.016000e+001 0.000000e+000 0.000000e+000
      vertex   -1.016000e+001 0.000000e+000 2.794000e+000
    endloop
  endfacet
  facet normal 0.000000e+000 1.000000e+000 -0.000000e+000
    outer loop
      vertex   0.000000e+000 5.080000e+000 0.000000e+000
      vertex   -1.016000e+001 5.080000e+000 0.000000e+000
      vertex   0.000000e+000 5.080000e+000 2.794000e+000
    endloop
  endfacet
  facet normal 0.000000e+000 1.000000e+000 -0.000000e+000
    outer loop
      vertex   0.000000e+000 5.080000e+000 2.794000e+000
      vertex   -1.016000e+001 5.080000e+000 0.000000e+000
      vertex   -1.016000e+001 5.080000e+000 2.794000e+000
    endloop
  endfacet
  facet normal 0.000000e+000 0.000000e+000 1.000000e+000
    outer loop
      vertex   0.000000e+000 5.080000e+000 2.794000e+000
      vertex   -1.016000e+001 5.080000e+000 2.794000e+000
      vertex   0.000000e+000 0.000000e+000 2.794000e+000
    endloop
  endfacet
  facet normal 0.000000e+000 0.000000e+000 1.000000e+000
    outer loop
      vertex   0.000000e+000 0.000000e+000 2.794000e+000
      vertex   -1.016000e+001 5.080000e+000 2.794000e+000
      vertex   -1.016000e+001 0.000000e+000 2.794000e+000
    endloop
  endfacet
  facet normal 0.000000e+000 -0.000000e+000 -1.000000e+000
    outer loop
      vertex   -1.016000e+001 5.080000e+000 0.000000e+000
      vertex   0.000000e+000 5.080000e+000 0.000000e+000
      vertex   -1.016000e+001 0.000000e+000 0.000000e+000
    endloop
  endfacet
  facet normal 0.000000e+000 0.000000e+000 -1.000000e+000
    outer loop
      vertex   -1.016000e+001 0.000000e+000 0.000000e+000
      vertex   0.000000e+000 5.080000e+000 0.000000e+000
      vertex   0.000000e+000 0.000000e+000 0.000000e+000
    endloop
  endfacet
endsolid
